<?xml version="1.0" standalone="no"?>
<!DOCTYPE svg PUBLIC "-//W3C//DTD SVG 20010904//EN"
 "http://www.w3.org/TR/2001/REC-SVG-20010904/DTD/svg10.dtd">
<svg version="1.0" xmlns="http://www.w3.org/2000/svg"
 width="100.000000pt" height="100.000000pt" viewBox="0 0 100.000000 100.000000"
 preserveAspectRatio="xMidYMid meet">
<metadata>
Created by potrace 1.11, written by Peter Selinger 2001-2013
</metadata>
<g transform="translate(0.000000,100.000000) scale(0.100000,-0.100000)"
fill="#000000" stroke="none">
<path d="M240 970 c-5 -3 49 -63 121 -134 l129 -130 1 55 c2 69 -1 91 -12 105
-6 7 6 10 39 9 l47 -1 3 -125 3 -125 49 -48 50 -48 2 173 c3 166 4 174 23 174
19 0 20 -8 23 -200 l2 -200 50 -48 50 -49 -1 296 -2 296 -51 0 c-28 0 -156 2
-284 3 -129 1 -238 0 -242 -3z"/>
<path d="M187 657 c1 -149 2 -282 2 -295 1 -20 5 -22 49 -20 l47 3 3 67 3 66
107 -1 107 0 70 -68 71 -68 68 1 67 2 -293 293 c-161 161 -295 293 -298 293
-3 0 -4 -123 -3 -273z m203 -71 c0 -3 -22 -6 -50 -6 l-50 0 0 55 0 55 50 -49
c28 -27 50 -52 50 -55z"/>
<path d="M63 233 c-3 -10 -12 -33 -19 -52 -8 -18 -14 -41 -14 -50 1 -13 3 -13
15 3 19 26 53 28 61 4 3 -10 9 -16 14 -13 10 6 -30 125 -42 125 -5 0 -11 -8
-15 -17z m27 -49 c0 -8 -6 -14 -14 -14 -9 0 -12 7 -9 20 6 22 23 18 23 -6z"/>
<path d="M145 191 c0 -33 3 -63 8 -67 4 -4 7 -3 8 2 2 21 8 46 13 51 11 11 36
-7 36 -26 0 -11 4 -23 10 -26 6 -4 9 17 7 57 l-2 63 -40 3 -41 3 1 -60z m65
23 c0 -8 -2 -14 -4 -14 -2 0 -11 -3 -19 -6 -18 -7 -32 27 -16 37 16 10 39 0
39 -17z"/>
<path d="M262 230 c-26 -42 0 -110 42 -110 20 0 48 29 40 42 -4 7 -10 4 -16
-6 -5 -9 -17 -16 -27 -16 -33 0 -42 57 -15 85 15 15 18 15 35 -1 22 -20 38
-11 19 11 -18 22 -63 19 -78 -5z"/>
<path d="M369 208 c-5 -56 0 -90 12 -83 5 4 9 17 9 31 0 20 5 24 29 24 24 0
29 -4 26 -18 -2 -10 1 -25 6 -33 10 -16 9 -19 12 69 1 34 -2 52 -10 52 -6 0
-10 -9 -8 -20 4 -21 -9 -33 -37 -35 -13 -1 -18 6 -18 27 0 44 -18 33 -21 -14z"/>
<path d="M490 191 c0 -33 5 -63 10 -66 6 -4 10 18 10 59 0 37 -4 66 -10 66 -6
0 -10 -26 -10 -59z"/>
<path d="M540 191 c0 -33 5 -63 10 -66 6 -4 10 11 10 37 l0 43 22 -45 21 -45
16 37 c17 41 28 49 28 21 0 -39 3 -54 11 -49 7 4 9 83 3 119 -3 21 -25 -3 -41
-43 l-18 -45 -16 39 c-9 21 -16 42 -16 47 0 5 -7 9 -15 9 -12 0 -15 -13 -15
-59z"/>
<path d="M701 236 c-13 -15 -18 -77 -8 -93 13 -21 58 -25 78 -7 22 20 25 71 5
97 -16 20 -59 23 -75 3z m67 -29 c7 -34 -7 -67 -28 -67 -25 0 -40 28 -33 63 5
23 10 28 32 25 16 -2 27 -10 29 -21z"/>
<path d="M810 184 c0 -41 4 -63 10 -59 6 3 10 23 10 43 l0 37 20 -43 c21 -47
35 -48 45 -2 8 36 26 31 19 -5 -3 -17 0 -25 9 -25 10 0 13 14 11 53 -2 67 -2
67 -13 67 -5 0 -17 -20 -27 -45 -19 -50 -26 -49 -44 8 -20 62 -40 48 -40 -29z"/>
<path d="M961 190 c0 -33 4 -62 10 -65 9 -6 11 5 11 65 0 52 -2 60 -11 60 -5
0 -10 -27 -10 -60z"/>
<path d="M53 97 c3 -10 2 -17 -2 -17 -5 0 -12 6 -14 13 -3 6 -6 0 -6 -15 -1
-22 4 -28 19 -28 15 0 20 7 20 24 0 14 -5 28 -12 32 -8 5 -9 2 -5 -9z"/>
<path d="M243 103 c4 -6 -2 -13 -13 -16 -22 -6 -18 -37 5 -37 16 0 26 48 12
57 -5 3 -7 1 -4 -4z m-3 -33 c0 -5 -2 -10 -4 -10 -3 0 -8 5 -11 10 -3 6 -1 10
4 10 6 0 11 -4 11 -10z"/>
<path d="M717 93 c-22 -6 -18 -37 6 -41 12 -3 17 3 17 22 0 14 -1 25 -2 25 -2
-1 -11 -3 -21 -6z m13 -23 c0 -5 -4 -10 -10 -10 -5 0 -10 5 -10 10 0 6 5 10
10 10 6 0 10 -4 10 -10z"/>
<path d="M92 73 c2 -10 11 -19 21 -21 12 -3 17 3 16 20 -1 17 -3 18 -6 6 -2
-10 -9 -18 -15 -18 -5 0 -8 7 -4 15 3 8 1 15 -5 15 -6 0 -9 -8 -7 -17z"/>
<path d="M152 70 c0 -14 2 -19 5 -12 2 6 2 18 0 25 -3 6 -5 1 -5 -13z"/>
<path d="M181 74 c0 -11 3 -14 6 -6 3 7 2 16 -1 19 -3 4 -6 -2 -5 -13z"/>
<path d="M276 73 c-6 -14 -5 -15 5 -6 7 7 10 15 7 18 -3 3 -9 -2 -12 -12z"/>
<path d="M311 68 c0 -21 1 -22 8 -3 8 19 8 19 20 0 11 -18 12 -18 7 -2 -3 10
-6 21 -6 23 0 2 -7 4 -15 4 -9 0 -15 -9 -14 -22z"/>
<path d="M370 86 c0 -2 7 -6 15 -10 8 -3 15 -1 15 4 0 6 -7 10 -15 10 -8 0
-15 -2 -15 -4z"/>
<path d="M458 74 c8 -16 8 -24 -1 -33 -9 -10 -8 -11 6 -6 22 9 22 28 0 46 -15
13 -15 12 -5 -7z"/>
<path d="M523 83 c9 -2 15 -8 12 -13 -3 -5 -13 -6 -22 -3 -11 4 -14 3 -9 -5
10 -16 33 -15 39 2 7 17 -1 26 -22 25 -13 -1 -12 -2 2 -6z"/>
<path d="M564 77 c3 -10 6 -21 6 -23 0 -2 7 -4 15 -4 9 0 15 9 14 23 0 20 -1
21 -8 2 -8 -19 -8 -19 -20 0 -11 18 -12 18 -7 2z"/>
<path d="M626 82 c-2 -4 0 -14 6 -22 8 -12 9 -12 5 2 -3 9 -1 19 6 22 9 3 9 5
0 5 -6 1 -14 -3 -17 -7z"/>
<path d="M761 68 c0 -16 2 -18 6 -8 3 8 11 18 17 22 7 5 4 8 -6 8 -12 0 -18
-7 -17 -22z"/>
<path d="M808 85 c-11 -11 3 -35 21 -35 10 0 12 3 5 8 -6 4 -13 13 -15 20 -3
7 -7 10 -11 7z"/>
<path d="M874 74 c3 -8 2 -12 -4 -9 -6 3 -10 1 -10 -4 0 -6 7 -11 15 -11 8 0
15 9 15 20 0 11 -5 20 -11 20 -6 0 -8 -7 -5 -16z"/>
<path d="M916 74 c-5 -14 -4 -15 8 -5 11 10 15 8 19 -6 4 -17 5 -17 6 0 0 10
6 15 11 12 6 -3 10 -1 10 4 0 18 -47 12 -54 -5z"/>
<path d="M370 51 c0 -12 6 -21 16 -21 9 0 14 7 12 17 -5 25 -28 28 -28 4z"/>
</g>
</svg>
